<?xml version="1.0" encoding="iso-8859-1"?>
<!-- Uploaded to: SVG Repo, www.svgrepo.com, Generator: SVG Repo Mixer Tools -->
<!DOCTYPE svg PUBLIC "-//W3C//DTD SVG 1.1//EN" "http://www.w3.org/Graphics/SVG/1.1/DTD/svg11.dtd">
<svg fill="#000000" version="1.1" id="Capa_1" xmlns="http://www.w3.org/2000/svg" xmlns:xlink="http://www.w3.org/1999/xlink" 
	 width="800px" height="800px" viewBox="0 0 45.187 45.187"
	 xml:space="preserve">
<g>
	<g>
		<path d="M37.871,5.16h-0.032v2.658h0.037c0.444,0,0.743,0.401,0.743,0.844v32.979c0,0.443-0.299,0.73-0.743,0.73H11.1V7.818
			h17.513V5.16H7.314c-1.968,0-3.563,1.595-3.563,3.562v32.903c0,1.967,1.595,3.562,3.563,3.562h30.558
			c1.968,0,3.562-1.595,3.562-3.562V8.722C41.434,6.755,39.839,5.16,37.871,5.16z M8.286,42.373H7.309
			c-0.443,0-0.743-0.288-0.743-0.731V8.662c0-0.443,0.3-0.844,0.743-0.844h0.978L8.286,42.373L8.286,42.373z"/>
		<path d="M16.498,15.011h9.314c1.014,0,1.838-0.782,1.838-1.798c0-1.015-0.824-1.798-1.838-1.798h-9.314
			c-1.016,0-1.839,0.783-1.839,1.798C14.659,14.228,15.483,15.011,16.498,15.011z"/>
		<path d="M16.498,23.141h16.666c1.017,0,1.84-0.861,1.84-1.876s-0.823-1.876-1.84-1.876H16.498c-1.016,0-1.839,0.861-1.839,1.876
			C14.659,22.281,15.483,23.141,16.498,23.141z"/>
		<path d="M16.498,31.115h16.666c1.017,0,1.84-0.861,1.84-1.877c0-1.015-0.823-1.875-1.84-1.875H16.498
			c-1.016,0-1.839,0.86-1.839,1.875C14.659,30.255,15.483,31.115,16.498,31.115z"/>
		<path d="M25.791,38.933h7.355c1.016,0,1.838-0.782,1.838-1.798s-0.822-1.798-1.838-1.798h-7.355c-1.016,0-1.838,0.782-1.838,1.798
			S24.777,38.933,25.791,38.933z"/>
		<path d="M31.97,15.575c0.246,0.414,0.703,0.667,1.186,0.667c0.481,0,0.935-0.253,1.183-0.667l1.405-2.308
			c0.129-0.213,0.218-0.458,0.218-0.706V1.444C35.961,0.686,35.308,0,34.55,0h-2.77c-0.76,0-1.447,0.686-1.447,1.444v11.117
			c0,0.249,0.104,0.493,0.232,0.706L31.97,15.575z"/>
	</g>
</g>
</svg>