<?xml version="1.0" encoding="iso-8859-1"?>
<!-- Uploaded to: SVG Repo, www.svgrepo.com, Generator: SVG Repo Mixer Tools -->
<svg fill="#000000" height="800px" width="800px" version="1.1" id="Layer_1" xmlns="http://www.w3.org/2000/svg"
     viewBox="0 0 489.791 489.791" xml:space="preserve">
<g>
	<g>
		<g>
			<path d="M348.821,0.574H48.905C21.938,0.574,0,22.513,0,49.479v390.834c0,26.967,21.938,48.905,48.905,48.905h299.917
				c4.325,0,7.832-3.506,7.832-7.832v-53.153c0-4.325-3.507-7.832-7.832-7.832s-7.832,3.506-7.832,7.832v45.322H48.905
				c-18.329,0-33.242-14.912-33.242-33.242c0-18.329,14.912-33.242,33.242-33.242h299.917c4.325,0,7.832-3.506,7.832-7.831V8.406
				C356.653,4.081,353.147,0.574,348.821,0.574z M340.989,391.408H70.727V86.188c0-4.325-3.506-7.832-7.831-7.832
				s-7.832,3.506-7.832,7.832v305.22h-6.16c-12.823,0-24.511,4.962-33.242,13.065V49.479c0-18.329,14.912-33.242,33.242-33.242h6.16
				v33.242c0,4.325,3.506,7.831,7.832,7.831c4.325,0,7.831-3.506,7.831-7.831V16.238h270.262V391.408z"/>
            <path d="M36.71,425.75v27.532c0,4.325,3.506,7.832,7.832,7.832c4.325,0,7.832-3.506,7.832-7.832V425.75
				c0-4.325-3.506-7.832-7.832-7.832S36.71,421.425,36.71,425.75z"/>
            <path d="M321.29,417.918H72.073c-4.325,0-7.831,3.506-7.831,7.832s3.506,7.832,7.831,7.832H321.29
				c4.325,0,7.832-3.506,7.832-7.832S325.615,417.918,321.29,417.918z"/>
            <path d="M321.29,445.451H72.073c-4.325,0-7.831,3.506-7.831,7.831c0,4.325,3.506,7.832,7.831,7.832H321.29
				c4.325,0,7.832-3.506,7.832-7.832S325.615,445.451,321.29,445.451z"/>
            <path d="M108.782,194.97h192.725c4.325,0,7.832-3.506,7.832-7.832V95.365c0-4.325-3.507-7.832-7.832-7.832H108.782
				c-4.325,0-7.831,3.506-7.831,7.832v91.773C100.951,191.464,104.457,194.97,108.782,194.97z M116.614,103.198h177.061v76.11
				H116.614V103.198z"/>
            <path d="M108.782,231.68h192.725c4.325,0,7.832-3.506,7.832-7.831c0-4.325-3.507-7.832-7.832-7.832H108.782
				c-4.325,0-7.831,3.506-7.831,7.832C100.951,228.173,104.457,231.68,108.782,231.68z"/>
            <path d="M108.782,66.488h192.725c4.325,0,7.832-3.506,7.832-7.831s-3.507-7.832-7.832-7.832H108.782
				c-4.325,0-7.831,3.506-7.831,7.832C100.951,62.982,104.457,66.488,108.782,66.488z"/>
            <path d="M481.959,39.732h-23.495V8.406c0-4.325-3.507-7.832-7.832-7.832h-54.821c-4.325,0-7.832,3.506-7.832,7.832v219.285
				c0,4.325,3.507,7.831,7.832,7.831v245.502c0,4.325,3.507,7.831,7.832,7.831h39.158c4.325,0,7.832-3.506,7.832-7.831V235.522
				c4.325,0,7.831-3.507,7.831-7.831V55.396h15.663v109.643c0,4.325,3.507,7.831,7.832,7.831s7.832-3.506,7.832-7.831V47.563
				C489.791,43.238,486.284,39.732,481.959,39.732z M434.969,473.192h-23.494v-237.67h23.494V473.192z M442.8,219.86h-39.157V55.396
				H442.8V219.86z M442.8,39.732h-39.157V16.238H442.8V39.732z"/>
		</g>
	</g>
</g>
</svg>