<?xml version="1.0" encoding="utf-8"?>
<!-- Svg Vector Icons : http://www.onlinewebfonts.com/icon -->
<!DOCTYPE svg PUBLIC "-//W3C//DTD SVG 1.1//EN" "http://www.w3.org/Graphics/SVG/1.1/DTD/svg11.dtd">
<svg version="1.1" xmlns="http://www.w3.org/2000/svg" xmlns:xlink="http://www.w3.org/1999/xlink" x="0px" y="0px" viewBox="0 0 256 256" enable-background="new 0 0 256 256" xml:space="preserve">
<metadata> Svg Vector Icons : http://www.onlinewebfonts.com/icon </metadata>
<g><g><path fill="#000000" d="M42.2,128H10l42.9,42.9L95.8,128H63.6c0-35.5,28.9-64.4,64.4-64.4c10.8,0,21.1,2.7,30,7.5l15.7-15.7c-13.2-8.4-28.9-13.3-45.7-13.3C80.6,42.2,42.2,80.6,42.2,128L42.2,128z M192.4,128c0,35.5-28.9,64.4-64.4,64.4c-10.8,0-21.1-2.7-30-7.5l-15.7,15.7c13.2,8.4,28.8,13.3,45.7,13.3c47.4,0,85.8-38.4,85.8-85.8H246l-42.9-42.9L160.2,128H192.4L192.4,128z"/></g></g>
</svg>