<svg xmlns="http://www.w3.org/2000/svg" viewBox="0 0 1265.07937 392.06349">
    <defs>
        <style>.a{fill:#d22127;}.b{fill:none;}</style>
    </defs>
    <title>rewe_logo-freelogovectors.net</title>
    <path class="a"
          d="M871.51924,422.72437h.9421l28.88218-159.08073c3.31279-17.98819,10.89-24.61729,31.72047-24.61729h29.35723c15.619,0,24.14576,6.15508,24.14576,19.88584a48.96647,48.96647,0,0,1-1.42406,10.88653L921.22851,535.40681c-4.25846,17.51763-9.94044,25.56636-32.19449,25.56636H853.99828c-19.88088,0-25.56242-7.10366-29.82828-25.09186L783.92678,362.59677h-.94609L742.738,536.35587c-4.26137,17.98917-9.93995,24.6173-29.82476,24.6173H677.87793c-22.25454,0-27.9336-7.57423-32.195-25.09186L581.765,269.79866a49.13021,49.13021,0,0,1-1.41866-10.88653c0-13.73028,8.52178-19.88584,24.14673-19.88584h35.03526c20.83194,0,28.40616,6.62861,31.718,24.61729L700.129,422.72431h.94513l36.93091-159.08073c4.26137-17.98819,11.8356-24.61729,31.72344-24.61729h32.66656c19.88433,0,27.45759,6.62861,31.723,24.61729l37.40123,159.08079ZM61.91872,560.97268c-17.51811,0-25.09332-7.57422-25.09332-25.09185V264.59119c0-17.99116,7.57519-25.5649,25.09332-25.5649h92.322c99.42521,0,137.3007,37.876,137.3007,101.79293,0,38.82262-20.83343,71.49015-67.70329,87.58761l73.85637,101.79093c4.26289,6.15708,6.15556,10.88951,6.15556,15.15088,0,10.41548-11.83559,15.62344-25.56587,15.62344H223.83873c-16.09749,0-22.25357-6.62813-33.6166-24.6173l-60.60112-97.059h-.9466v96.58443c0,17.51763-7.5762,25.09186-25.56587,25.09186H61.91872Zm979.09322,0c-17.51763,0-24.14576-6.62813-24.14576-24.14624V263.64364c0-17.98819,6.62813-24.61729,24.14576-24.61729h163.34314c17.98868,0,24.61729,6.62861,24.61729,24.61729V286.8433c0,17.51715-6.62861,24.14673-24.61729,24.14673h-93.74621v53.02788h79.54082c17.98868,0,24.61681,6.6271,24.61681,24.61881v21.307c0,17.51418-6.62813,24.14624-24.61681,24.14624h-79.54082V489.01h107.94844c17.99219,0,24.61729,6.62861,24.61729,24.61729v23.20015c0,17.51811-6.6251,24.14624-24.61729,24.14624H1041.01194Zm-674.192,0c-17.51615,0-25.09332-7.57422-25.09332-25.09185V264.59119c0-17.99116,7.5772-25.5649,25.09332-25.5649H528.2684c17.9882,0,25.56436,7.57374,25.56436,25.5649v21.30747c0,17.5186-7.57616,25.09131-25.56436,25.09131H435.46932v53.02788h78.59376c17.98965,0,25.56587,7.57617,25.56587,25.56685v19.41279c0,17.51363-7.57616,25.09186-25.56587,25.09186H435.46932v54.92007H542.46876c17.99365,0,25.56836,7.57374,25.56836,25.56684v21.305c0,17.51763-7.57471,25.09186-25.56836,25.09186H366.82ZM155.18835,383.90327c27.9326,0,39.76968-11.83657,39.76968-37.404,0-25.5649-11.83708-37.39995-39.76968-37.39995h-26.514v74.80391h26.514"
          transform="translate(-7.46032 -203.96825)"/>
    <rect class="b" width="1265.07937" height="392.06349"/>
</svg>