<?xml version="1.0" encoding="iso-8859-1"?>
<!-- Uploaded to: SVG Repo, www.svgrepo.com, Generator: SVG Repo Mixer Tools -->
<svg fill="#000000" height="800px" width="800px" version="1.1" id="Layer_1" xmlns="http://www.w3.org/2000/svg"
     viewBox="0 0 512 512" xml:space="preserve">
<g>
	<g>
		<path d="M483.048,133.344L41.775,94.367c-10.699-0.945-21.383,2.673-29.307,9.928C4.544,111.548,0,121.869,0,132.613v105.511
			c0,4.199,3.405,7.604,7.604,7.604h17.464v34.555c0,4.199,3.405,7.604,7.604,7.604h113.943c4.199,0,7.604-3.405,7.604-7.604v-7.62
			l222.043-12.346l-35.959,67.769H30.77C13.804,328.087,0,341.89,0,358.857v51.32c0,4.199,3.405,7.604,7.604,7.604h496.792
			c4.199,0,7.604-3.405,7.604-7.604V335.69v-97.566v-73.158C512,148.396,499.554,134.801,483.048,133.344z M139.011,265.471v7.208
			H40.275v-26.951h98.735V265.471z M154.219,257.432v-11.704h210.514L154.219,257.432z M496.792,402.574H15.208v-43.716
			c0-8.581,6.981-15.563,15.563-15.563h314.106h151.916V402.574z M496.792,328.088H357.519l43.701-82.359h95.572V328.088z
			 M496.792,230.521H396.647H146.615H32.671H15.208v-97.908c0-6.583,2.675-12.657,7.53-17.103
			c4.856-4.446,11.144-6.579,17.699-5.995l441.273,38.978c8.599,0.759,15.082,7.842,15.082,16.474V230.521z"/>
	</g>
</g>
    <g>
	<g>
		<path d="M424.636,263.151c-11.959,0-21.689,9.73-21.689,21.689s9.73,21.69,21.689,21.69s21.69-9.73,21.69-21.69
			S436.596,263.151,424.636,263.151z M424.636,291.323c-3.574,0-6.482-2.908-6.482-6.483c0-3.574,2.908-6.482,6.482-6.482
			c3.574,0,6.483,2.908,6.483,6.482C431.119,288.414,428.21,291.323,424.636,291.323z"/>
	</g>
</g>
    <g>
	<g>
		<path d="M390.468,162.401L61.319,130.966c-7.374-0.705-14.754,1.751-20.238,6.735c-5.484,4.985-8.629,12.094-8.629,19.506v36.909
			c0,4.199,3.405,7.604,7.604,7.604c4.199,0,7.604-3.405,7.604-7.604v-36.909c0-3.182,1.297-6.113,3.651-8.253
			c2.353-2.14,5.392-3.149,8.562-2.85l329.149,31.437c4.176,0.407,7.893-2.665,8.292-6.847
			C397.714,166.513,394.649,162.801,390.468,162.401z"/>
	</g>
</g>
</svg>